<?xml version="1.0" encoding="UTF-8"?>
<svg id="Layer_2" data-name="Layer 2" xmlns="http://www.w3.org/2000/svg" viewBox="0 0 558.76 94.01">
  <defs>
    <style>
      .cls-1 {
        fill: none;
        stroke: #000;
        stroke-linecap: round;
        stroke-linejoin: round;
        stroke-width: 11px;
      }
    </style>
  </defs>
  <g id="Layer_1-2" data-name="Layer 1">
    <path class="cls-1" d="m38.47,25.57c-4.03,22.56-7.47,40.09-9.45,50.3-.55,2.85-1.83,9.43-6.55,11.59-.34.15-2.44,1.08-4.94.54-4.49-.98-6.82-5.97-8.04-8.68-7.15-15.88-2.5-35.38-2.5-35.38,2-8.23,5.13-21.4,17.06-30.28,2.48-1.85,9.53-7.05,19.76-7.63,3.91-.22,15.62-.88,21.98,7.42,4.54,5.92,3.79,13.04,3.57,15.06-1.05,9.92-8.15,15.79-10.35,17.6-7.12,5.88-14.86,6.71-19.14,7.17-8.7.93-15.66-1.06-19.4-2.43"/>
    <path class="cls-1" d="m114.95,5.9c-1.79-.02-4.37.11-7.3.92-16.12,4.45-27.01,24.78-26.23,42.88.22,5.23.64,15,8.25,22.09,7.31,6.82,18.02,8.14,26.27,5.62,14.56-4.46,19.34-20.28,21.36-26.95,1.29-4.28,7.97-26.36-4.93-38.1-5.91-5.38-13.42-6.31-17.41-6.46Z"/>
    <path class="cls-1" d="m156.3,30.3c-.85-2.76-2.41-9.29.89-14.68,3.23-5.26,9.49-6.82,15.06-7.79,20.39-3.52,45.54-1.48,57.32-.26"/>
    <path class="cls-1" d="m193.32,10.51c-3.15,12.99-6.03,26.95-8.43,41.84-1.52,9.44-2.74,18.58-3.7,27.38"/>
    <path class="cls-1" d="m259.81,25.45c-4.23,25.01-7.97,44.1-10.09,53.11-.6,2.57-1.84,7.56-5.74,9.32-3.06,1.38-6.36.13-7.28-.26-3.31-1.41-5.92-4.56-8.03-10.7-2.8-8.17-5.68-24.45,2.15-43.05,2.61-6.19,5.58-13.03,12.77-19.02,2.85-2.38,10.7-8.73,22.21-8.94,3.54-.06,16.67-.29,22.47,8.94,5.35,8.51,1.11,19.98-3.32,26.04-8,10.94-24.49,15.04-41.36,10.21"/>
    <path class="cls-1" d="m338.16,6.26c-10.07-.39-17.21,5.02-19.79,7.03-16.4,12.79-14.32,36.03-13.88,39.98.6,5.43,1.49,12.46,7.15,18.38.86.9,6.72,6.86,15.48,7.54,15.37,1.19,26.04-14.97,27.61-17.34,10.11-15.26,11.55-39.49-.76-49.89-6.05-5.11-13.91-5.62-15.8-5.69Z"/>
    <path class="cls-1" d="m425.62,27.49c.25-.58,3.84-9.19-1.02-15.96-4.58-6.38-13-6-15.96-5.87-8.65.38-14.46,5.58-15.46,6.5-8,7.36-9.12,18.49-10.58,35.25-1.4,16.05.36,22.49-5.01,27.24-3.55,3.14-10.27,5.6-13.47,3.11-1.12-.87-2-2.48-1.68-3.9.85-3.8,9.89-4.47,11.32-4.58,6.42-.48,11.31,1.11,14.59,2.13,16.18,5.02,24.27,7.52,30.89,6.26,3.99-.76,9.87-3.1,16.21-10.98"/>
    <path class="cls-1" d="m454.57,6.08c6.75,0,13.5,0,20.25-.02,5.42,0,10.84-.02,16.26-.04"/>
    <path class="cls-1" d="m468.34,9.23c-3.83,22.38-7.66,44.77-11.49,67.15"/>
    <path class="cls-1" d="m444.1,79.72c6.28-.27,12.66-.48,19.15-.64,5.74-.14,11.4-.22,16.98-.26"/>
    <path class="cls-1" d="m536.53,7.03c-13.93-5.36-27,4.98-28.48,6.2-7.27,5.94-9.72,13.41-11.46,18.71-2.12,6.46-8.73,26.57,3.09,38.59,8.4,8.54,20.75,7.55,22.49,7.39,13.9-1.33,21.44-12.34,23.19-14.9,3.95-5.78,5.03-11.14,6.14-16.71,1.64-8.21,3.47-17.33-1.25-26.44-1.07-2.06-5.08-9.52-13.71-12.84Z"/>
  </g>
</svg>